# xmcd
#
# Track frame offsets: 
#        150
#        14037
#        36157
#        51877
#        64447
#        81950
#        101922
#        110982
#        129780
#        149607
#        164912
#        174510
#
# Disc length: 2466 seconds
#
# Revision: 8
# Processed by: cddbd v1.5.2PL0 Copyright (c) Steve Scherf et al.
# Submitted via: ExactAudioCopyFreeDBPlugin 1.0
#
DISCID=bb09a00c
DTITLE=Cat Power - The Covers Record
DYEAR=2000
DGENRE=Indie
TTITLE0=(I Can't Get No) Satisfaction
TTITLE1=Kingsport Town
TTITLE2=Troubled Waters
TTITLE3=Naked If I Want To
TTITLE4=Sweedeedee
TTITLE5=In This Hole
TTITLE6=I Found A Reason
TTITLE7=Wild Is The Wind
TTITLE8=Red Apples
TTITLE9=Paths Of Victory
TTITLE10=Salty Dog
TTITLE11=Sea Of Love
EXTD=
EXTT0=
EXTT1=
EXTT2=
EXTT3=
EXTT4=
EXTT5=
EXTT6=
EXTT7=
EXTT8=
EXTT9=
EXTT10=
EXTT11=
PLAYORDER=
